<svg width="1024" height="1024" viewBox="0 0 1024 1024" fill="none" xmlns="http://www.w3.org/2000/svg">
<path d="M725.333 218.667H336V544H725.333V218.667Z" fill="#343331"/>
<path d="M513.778 101.333C362.82 101.333 240 224.153 240 375.112C240 420.429 251.33 465.362 272.869 505.216L498.806 913.845C501.814 919.291 507.546 922.667 513.778 922.667C520.01 922.667 525.742 919.291 528.75 913.845L754.768 505.081C776.224 465.362 787.557 420.428 787.557 375.11C787.557 224.153 664.736 101.333 513.778 101.333ZM513.778 512C438.299 512 376.89 450.59 376.89 375.112C376.89 299.633 438.299 238.223 513.778 238.223C589.259 238.223 650.667 299.633 650.667 375.112C650.667 450.59 589.259 512 513.778 512Z" fill="#343331"/>
<path d="M688 266.667H384V544H688V266.667Z" fill="#3B3A37"/>
<path d="M542.501 183.597C415.957 183.597 313 286.628 313 413.264C313 451.28 322.498 488.973 340.554 522.406L529.951 865.194C532.472 869.766 537.277 872.597 542.501 872.597C547.724 872.597 552.529 869.766 555.051 865.194L744.52 522.293C762.507 488.973 772 451.279 772 413.263C772 286.628 669.046 183.597 542.501 183.597ZM542.501 528.097C479.229 528.097 427.751 476.582 427.751 413.264C427.751 349.946 479.229 298.431 542.501 298.431C605.774 298.431 657.251 349.946 657.251 413.264C657.251 476.582 605.774 528.097 542.501 528.097Z" fill="#3C3A37"/>
<path d="M641.332 403.775C641.327 403.77 641.322 403.765 641.318 403.76L555.238 317.692C551.568 314.022 546.69 312 541.501 312C536.312 312 531.434 314.02 527.763 317.691L441.728 403.715C441.699 403.744 441.671 403.775 441.642 403.804C434.107 411.381 434.12 423.675 441.679 431.233C445.132 434.688 449.693 436.689 454.57 436.898C454.768 436.917 454.967 436.927 455.168 436.927H458.599V500.268C458.599 512.802 468.798 523 481.337 523H515.014C518.427 523 521.196 520.233 521.196 516.818V467.159C521.196 461.44 525.849 456.787 531.569 456.787H551.433C557.153 456.787 561.806 461.44 561.806 467.159V516.818C561.806 520.233 564.574 523 567.988 523H601.666C614.204 523 624.403 512.802 624.403 500.268V436.927H627.585C632.772 436.927 637.65 434.907 641.322 431.236C648.889 423.666 648.893 411.351 641.332 403.775V403.775Z" fill="#C9C9C9"/>
</svg>
