<svg width="1024" height="1024" viewBox="0 0 1024 1024" fill="none" xmlns="http://www.w3.org/2000/svg">
<path d="M725.333 218.667H336V544H725.333V218.667Z" fill="#343331"/>
<path d="M513.778 101.333C362.82 101.333 240 224.153 240 375.112C240 420.429 251.33 465.362 272.869 505.216L498.806 913.845C501.814 919.291 507.546 922.667 513.778 922.667C520.01 922.667 525.742 919.291 528.75 913.845L754.768 505.081C776.224 465.362 787.557 420.428 787.557 375.11C787.557 224.153 664.736 101.333 513.778 101.333ZM513.778 512C438.299 512 376.89 450.59 376.89 375.112C376.89 299.633 438.299 238.223 513.778 238.223C589.259 238.223 650.667 299.633 650.667 375.112C650.667 450.59 589.259 512 513.778 512Z" fill="#343331"/>
<path d="M688 266.667H384V544H688V266.667Z" fill="#3B3A37"/>
<path d="M542.501 183.597C415.957 183.597 313 286.628 313 413.264C313 451.28 322.498 488.973 340.554 522.406L529.951 865.194C532.472 869.766 537.277 872.597 542.501 872.597C547.724 872.597 552.529 869.766 555.051 865.194L744.52 522.293C762.507 488.973 772 451.279 772 413.263C772 286.628 669.046 183.597 542.501 183.597ZM542.501 528.097C479.229 528.097 427.751 476.582 427.751 413.264C427.751 349.946 479.229 298.431 542.501 298.431C605.774 298.431 657.251 349.946 657.251 413.264C657.251 476.582 605.774 528.097 542.501 528.097Z" fill="#3C3A37"/>
<path d="M648.801 394.272L636.81 346.28C635.339 340.384 630.039 336.25 623.957 336.25H462.056C455.974 336.25 450.674 340.384 449.19 346.28L437.199 394.272C437.066 394.789 437 395.332 437 395.875C437 414.134 451.111 429 468.469 429C478.552 429 487.549 423.978 493.312 416.187C499.076 423.978 508.073 429 518.156 429C528.239 429 537.236 423.978 543 416.187C548.764 423.978 557.747 429 567.844 429C577.94 429 586.924 423.978 592.688 416.187C598.451 423.978 607.435 429 617.531 429C634.889 429 649 414.134 649 395.875C649 395.332 648.934 394.789 648.801 394.272Z" fill="#C9C9C9"/>
<path d="M617.531 442.25C608.508 442.25 599.935 439.494 592.688 434.459C578.192 444.542 557.495 444.542 543 434.459C528.505 444.542 507.808 444.542 493.312 434.459C486.065 439.494 477.492 442.25 468.469 442.25C461.963 442.25 455.828 440.726 450.25 438.129V508.5C450.25 515.814 456.186 521.75 463.5 521.75H516.5V468.75H569.5V521.75H622.5C629.814 521.75 635.75 515.814 635.75 508.5V438.129C630.172 440.726 624.037 442.25 617.531 442.25Z" fill="#C9C9C9"/>
</svg>
