<svg width="1024" height="1024" viewBox="0 0 1024 1024" fill="none" xmlns="http://www.w3.org/2000/svg">
<path d="M725.333 218.667H336V544H725.333V218.667Z" fill="#343331"/>
<path d="M513.778 101.333C362.82 101.333 240 224.153 240 375.112C240 420.429 251.33 465.362 272.869 505.216L498.806 913.845C501.814 919.291 507.546 922.667 513.778 922.667C520.01 922.667 525.742 919.291 528.75 913.845L754.768 505.081C776.224 465.362 787.557 420.428 787.557 375.11C787.557 224.153 664.736 101.333 513.778 101.333ZM513.778 512C438.299 512 376.89 450.59 376.89 375.112C376.89 299.633 438.299 238.223 513.778 238.223C589.259 238.223 650.667 299.633 650.667 375.112C650.667 450.59 589.259 512 513.778 512Z" fill="#343331"/>
<path d="M688 266.667H384V544H688V266.667Z" fill="#3B3A37"/>
<path d="M542.501 183.597C415.957 183.597 313 286.628 313 413.264C313 451.28 322.498 488.973 340.554 522.406L529.951 865.194C532.472 869.766 537.277 872.597 542.501 872.597C547.724 872.597 552.529 869.766 555.051 865.194L744.52 522.293C762.507 488.973 772 451.279 772 413.263C772 286.628 669.046 183.597 542.501 183.597ZM542.501 528.097C479.229 528.097 427.751 476.582 427.751 413.264C427.751 349.946 479.229 298.431 542.501 298.431C605.774 298.431 657.251 349.946 657.251 413.264C657.251 476.582 605.774 528.097 542.501 528.097Z" fill="#3C3A37"/>
<path d="M631.333 520.867V498.801C635.992 496.056 638.721 490.932 638.4 485.533C638.4 477.728 633.656 471.4 627.8 471.4C621.944 471.4 617.2 477.728 617.2 485.533C616.879 490.932 619.608 496.056 624.267 498.801V520.867H599.533V413.518L578.333 402.918V421.933H588.933V429H578.333V443.133H588.933V450.2H578.333V464.333H588.933V471.4H578.333V485.533H588.933V492.6H578.333V506.733H588.933V513.8H578.333V520.867H571.267V378.664L528.867 366.552V379.533H553.6V386.6H528.867V400.733H553.6V407.8H528.867V421.933H553.6V429H528.867V443.133H553.6V450.2H528.867V464.333H553.6V471.4H528.867V485.533H553.6V492.6H528.867V506.733H553.6V513.8H528.867V520.867H521.8V323H458.2V337.133H490V344.2H458.2V358.333H490V365.4H458.2V379.533H490V386.6H458.2V400.733H490V407.8H458.2V421.933H490V429H458.2V443.133H490V450.2H458.2V464.333H490V471.4H458.2V485.533H490V492.6H458.2V506.733H490V513.8H458.2V520.867H437V527.933H649V520.867H631.333Z" fill="#C9C9C9"/>
</svg>
